<svg width="100" height="82" viewBox="0 0 100 82" fill="none" xmlns="http://www.w3.org/2000/svg">
<path d="M12.5971 75.5107C10.5971 53.3441 12.4971 9.21073 36.0971 10.0107C65.5971 11.0107 62.0972 45.5107 41.5972 44.5107C21.0972 43.5107 18.0972 26.0107 30.5972 29.5107C40.5972 32.3107 54.7638 59.0107 60.5972 72.0107" stroke="black" stroke-width="6"/>
<path d="M64.196 57V14.0909H78.6946C82.0608 14.0909 84.8125 14.6985 86.9496 15.9137C89.1006 17.1149 90.6929 18.7422 91.7266 20.7955C92.7602 22.8487 93.277 25.1394 93.277 27.6676C93.277 30.1958 92.7602 32.4935 91.7266 34.5607C90.7069 36.628 89.1286 38.2762 86.9915 39.5053C84.8544 40.7205 82.1167 41.3281 78.7784 41.3281H68.3864V36.7188H78.6108C80.9155 36.7188 82.7662 36.3207 84.163 35.5245C85.5598 34.7283 86.5724 33.6528 87.201 32.2979C87.8435 30.9291 88.1648 29.3857 88.1648 27.6676C88.1648 25.9496 87.8435 24.4131 87.201 23.0582C86.5724 21.7034 85.5528 20.6418 84.142 19.8736C82.7313 19.0914 80.8596 18.7003 78.527 18.7003H69.392V57H64.196Z" fill="black"/>
</svg>
